<svg xmlns="http://www.w3.org/2000/svg" xmlns:xlink="http://www.w3.org/1999/xlink" version="1.1" x="0px" y="0px" viewBox="0 0 48 60" enable-background="new 0 0 48 48" xml:space="preserve"><g><path d="M37.795,0h-27.59C7.529,0,5.354,2.176,5.354,4.851v38.299c0,2.675,2.176,4.851,4.852,4.851h27.59   c2.676,0,4.852-2.176,4.852-4.851V4.851C42.646,2.176,40.471,0,37.795,0z M26.75,38.021v4.521h-5.499v-4.521H26.75z M26.75,29.334   v4.52h-5.499v-4.52H26.75z M26.75,20.54v4.52h-5.499v-4.52H26.75z M17.143,38.021v4.521h-5.499v-4.521H17.143z M17.143,29.334v4.52   h-5.499v-4.52H17.143z M36.357,20.54v4.52h-5.5v-4.52H36.357z M34.223,14.68H13.777c-1.128,0-2.046-0.816-2.046-1.82V7.507   c0-1.003,0.918-1.82,2.046-1.82h20.445c1.128,0,2.046,0.817,2.046,1.82v5.353C36.269,13.864,35.351,14.68,34.223,14.68z    M17.143,20.54v4.52h-5.499v-4.52H17.143z M36.357,29.334v4.52h-5.5v-4.52H36.357z M36.357,38.021v4.521h-5.5v-4.521H36.357z"/></g></svg>