<svg xmlns="http://www.w3.org/2000/svg" xmlns:xlink="http://www.w3.org/1999/xlink" version="1.1" x="0px" y="0px" viewBox="0 0 100 125" enable-background="new 0 0 100 100" xml:space="preserve"><path d="M52.5,80.3c0.1,0.1,0.1,0.2,0,0.4l-3,5.3c-0.1,0.1-0.2,0.2-0.3,0.2l-6.2,0l0,0.2v-0.2c-0.1,0-0.2-0.1-0.3-0.2l-3.1-5.3  c-0.1-0.1-0.1-0.2,0-0.4l3.1-5.4c0.1-0.1,0.2-0.2,0.3-0.2l6.1,0c0.1,0,0.2,0.1,0.3,0.2L52.5,80.3z M41,74l-3.1,5.4  c-0.1,0.1-0.2,0.2-0.3,0.2l-6.2,0l0,0.2v-0.2c-0.1,0-0.2-0.1-0.3-0.2L27.9,74c-0.1-0.1-0.1-0.2,0-0.4l3.1-5.4  c0.1-0.1,0.2-0.2,0.3-0.2l6.2,0c0.1,0,0.2,0.1,0.3,0.2l3.1,5.4C41.1,73.7,41.1,73.9,41,74z M37.9,77.8c0,0,0,0-0.5-0.7l-5.8,0  c-0.4,0.6-0.4,0.6-0.4,0.6s0,0,0.4,0.7l5.8,0C37.7,78.1,37.9,77.8,37.9,77.8z M37.8,69.7c0,0,0,0-0.5-0.6l-5.8,0  c-0.4,0.6-0.4,0.6-0.4,0.6s0,0,0.4,0.6l5.8,0C37.6,69.9,37.8,69.7,37.8,69.7z M64.1,73.6L61,68.3c-0.1-0.1-0.2-0.2-0.3-0.2l-6.2,0  c-0.1,0-0.2,0.1-0.3,0.2l-3,5.3c-0.1,0.1-0.1,0.2,0,0.4l3.1,5.4c0.1,0.1,0.2,0.2,0.3,0.2v0.2l0-0.2l6.1,0c0.1,0,0.2-0.1,0.3-0.2  l3.1-5.4C64.1,73.9,64.1,73.7,64.1,73.6z M72.5,74.9c-0.1-0.1-0.2-0.2-0.3-0.2l-6.2,0c-0.1,0-0.2,0.1-0.3,0.2l-2.9,5  c0,0.1-0.1,0.2,0,0.3c0,0.1,0.1,0.2,0.2,0.2l9.3,5.3c0.1,0,0.1,0,0.2,0c0.1,0,0.2-0.1,0.3-0.2l2.9-5c0.1-0.1,0.1-0.2,0-0.4  L72.5,74.9z M86.9,91.8c-1.1,1.9-3.1,3-5.3,3l-63.6,0c-2.2,0-4.2-1.1-5.3-3c-1.1-1.8-1.3-4.1-0.3-6.1l2-4.4l0,0L36.9,31V9.9h-1.9  c-1,0-1.8-0.8-1.8-1.8V7.1c0-1,0.8-1.8,1.8-1.8h30.2c1,0,1.8,0.8,1.8,1.8v1.1c0,1-0.8,1.8-1.8,1.8h-1.9l0,21.1L77,62.4l0,0l4,9.2  l4.2,9.7l0,0l1.9,4.4C88.1,87.6,88,89.9,86.9,91.8z M34.9,8.6h30.2c0.3,0,0.5-0.2,0.5-0.5V7.1c0-0.3-0.2-0.5-0.5-0.5H34.9  c-0.3,0-0.5,0.2-0.5,0.5v1.1C34.5,8.4,34.7,8.6,34.9,8.6z M24.2,62.1h51.4l-2.4-5.6L73,56.3h-5.5v-1h5.1l-2-4.6v0H65v-1h5.1l-2-4.6  h-5.5v-1h5.1l-0.1-0.3l-0.1-0.3l-1.8-4v0.1h-5.6v-1h5.1l-0.5-1.1l-0.1-0.3l-1.4-3.2h-5.5v-1h5.1l-0.8-1.8V31h0l0-2.5h-5.5v-1h5.5  l0-2.6v-0.3h0l0-1.7h-5.5v-1h5.5l0-3.3v-0.3h0l0-1h-5.5v-1h5.5l0-6.5H38l0,21.4L24.2,62.1z M77.2,80.2l-3.8-6.5  c-0.1-0.2-0.3-0.3-0.5-0.3l-7.1,0c-0.2,0-0.4-0.1-0.5-0.3L61.8,67c-0.1-0.2-0.3-0.3-0.5-0.3l-7.5,0c-0.2,0-0.4,0.1-0.5,0.3l-3.5,6.1  c-0.1,0.2-0.3,0.3-0.5,0.3l-6.6,0c-0.2,0-0.4-0.1-0.5-0.3L38.7,67c-0.1-0.2-0.3-0.3-0.5-0.3l-7.5,0c-0.2,0-0.4,0.1-0.5,0.3l-3.7,6.5  c-0.1,0.2-0.1,0.4,0,0.6l3.8,6.5c0.1,0.2,0.3,0.3,0.5,0.3l7,0c0.2,0,0.4,0.1,0.5,0.3l3.6,6.1c0.1,0.2,0.3,0.3,0.5,0.3l7.5,0  c0.2,0,0.4-0.1,0.5-0.3l3.5-6.1c0.1-0.2,0.3-0.3,0.5-0.3l6.9,0c0.1,0,0.2,0,0.3,0.1l11.3,6.5c0.3,0.2,0.6,0.1,0.8-0.2l3.7-6.5  C77.3,80.6,77.3,80.4,77.2,80.2z"/></svg>