<svg xmlns="http://www.w3.org/2000/svg" xmlns:xlink="http://www.w3.org/1999/xlink" version="1.1" x="0px" y="0px" viewBox="0 0 100 125" enable-background="new 0 0 100 100" xml:space="preserve"><path d="M94.857,71.766l-3.975-19.397c-0.105-0.515-0.478-0.934-0.976-1.1c-0.499-0.166-1.048-0.054-1.439,0.295L73.654,64.704  c-0.393,0.349-0.569,0.88-0.465,1.395c0.105,0.515,0.478,0.934,0.976,1.1l4.772,1.589c-4.679,9.516-13.759,16.101-24.265,17.599  v-50.87c6.479-1.99,11.067-8.099,11.067-14.953c0-8.624-7.016-15.641-15.64-15.641s-15.64,7.017-15.64,15.641  c0,6.854,4.588,12.963,11.067,14.953v50.87c-10.507-1.497-19.586-8.083-24.264-17.599l4.772-1.589c0.498-0.166,0.87-0.585,0.975-1.1  c0.105-0.515-0.071-1.047-0.464-1.395L11.733,51.563c-0.393-0.349-0.942-0.461-1.44-0.295s-0.87,0.585-0.976,1.1L5.343,71.766  c-0.105,0.515,0.071,1.046,0.464,1.395c0.393,0.348,0.942,0.461,1.44,0.295l5.278-1.758c6.688,14.725,21.289,24.162,37.576,24.162  c16.286,0,30.888-9.438,37.575-24.162l5.277,1.758c0.499,0.166,1.048,0.053,1.44-0.295C94.786,72.812,94.964,72.28,94.857,71.766z   M50.101,14.068c3.581,0,6.494,2.914,6.494,6.495c0,3.581-2.913,6.495-6.494,6.495c-3.582,0-6.495-2.914-6.495-6.495  C43.606,16.981,46.519,14.068,50.101,14.068z"/></svg>