<svg xmlns="http://www.w3.org/2000/svg" xmlns:xlink="http://www.w3.org/1999/xlink" version="1.1" x="0px" y="0px" viewBox="0 0 100 125" enable-background="new 0 0 100 100" xml:space="preserve"><path d="M50,5C27.884,5,9.956,9.296,9.956,14.596c0,0.232,0.148,3.235,1.139,4.243l28.001,30.455v25.936  c0,1.071,0.359,2.003,1.077,2.782l14.544,15.81C55.394,94.608,56.246,95,57.27,95c0.453,0,0.929-0.104,1.422-0.312  c1.478-0.698,2.215-1.914,2.215-3.644V49.294L88.908,18.84c0.991-1.008,1.136-4.011,1.136-4.244C90.044,9.296,72.115,5,50,5z   M50.145,22.74c-20.505,0-37.127-3.375-37.127-7.539c0-4.165,16.622-7.54,37.127-7.54s37.127,3.375,37.127,7.54  C87.271,19.365,70.649,22.74,50.145,22.74z"/></svg>