<svg xmlns="http://www.w3.org/2000/svg" xmlns:xlink="http://www.w3.org/1999/xlink" version="1.1" x="0px" y="0px" viewBox="0 0 100 125" enable-background="new 0 0 100 100" xml:space="preserve"><path d="M75.399,63.467c-0.037-4.717-5.03-26.579-7.796-18.731c-3.383,9.599-9.365,8.589-9.365,8.589  c4.682-14.046-0.884-32.332-9.385-42.008c-9.11-10.367-2.317,8.454-11.075,23.105C30.61,46.42,23.749,51.861,24.686,67.37  c0.59,9.757,6.798,17.352,12.602,18.572c-1.675-7.651-4.487-17.437-2.74-25.131c1.523-6.715,7.07-12.016,14.674-13.589  c-7.483,15.743,7.754,24.448,6.876,38.75c-0.074,1.245-0.318,4.474-0.672,5.695C66.25,89.227,75.472,72.721,75.399,63.467z"/></svg>