<svg xmlns="http://www.w3.org/2000/svg" xmlns:xlink="http://www.w3.org/1999/xlink" version="1.1" x="0px" y="0px" viewBox="0 0 100 125" enable-background="new 0 0 100 100" xml:space="preserve"><path d="M81.402,41c-0.678,0.678-4.324,4.561-6.672,7H72v-4c0-1.104-0.896-2-2-2s-2,0.896-2,2v4h-4v-5c0-1.104-0.896-2-2-2  s-2,0.896-2,2v5h-4v-6c0-1.104-0.896-2-2-2s-2,0.896-2,2v6h-4v-7c0-1.104-0.896-2-2-2s-2,0.896-2,2v7h-4v-7c0-1.104-0.896-2-2-2  s-2,0.896-2,2v7h-3.313C32.515,48,32,48.04,32,48.098V41c0,0,0.402-1-0.598-1s-14.646,6-14.646,10s13.724,10,14.724,10S32,59,32,59  v-7.098C32,51.96,32.515,52,32.687,52H36v7c0,1.104,0.896,2,2,2s2-0.896,2-2v-7h4v7c0,1.104,0.896,2,2,2s2-0.896,2-2v-7h4v6  c0,1.104,0.896,2,2,2s2-0.896,2-2v-6h4v5c0,1.104,0.896,2,2,2s2-0.896,2-2v-5h4v4c0,1.104,0.896,2,2,2s2-0.896,2-2v-4h2.755  c2.379,2.439,6.071,6.322,6.749,7C83.098,60.594,83,60,83,59s0-17,0-18S82.985,39.417,81.402,41z M26.789,49.312  c-0.949,0-1.719-0.77-1.719-1.719s0.77-1.719,1.719-1.719c0.95,0,1.719,0.77,1.719,1.719S27.739,49.312,26.789,49.312z"/></svg>