<svg xmlns="http://www.w3.org/2000/svg" xmlns:xlink="http://www.w3.org/1999/xlink" version="1.1" x="0px" y="0px" viewBox="0 0 100 125" enable-background="new 0 0 100 100" xml:space="preserve"><g><polygon points="40.386,43.642 49.591,48.989 49.591,43.667 42.723,39.678 49.591,35.819 49.591,30.542 40.386,35.711    40.386,24.686 44.988,24.686 44.988,20.083 40.386,20.083 40.386,15.48 35.783,15.48 35.783,20.083 31.181,20.083 31.181,24.686    35.783,24.686 35.783,35.646 26.307,30.142 28.616,26.162 24.637,23.852 22.326,27.832 18.346,25.52 16.034,29.5 20.011,31.81    17.701,35.792 21.684,38.103 23.994,34.123 33.446,39.613 23.915,44.964 21.661,40.952 17.647,43.204 19.904,47.218 15.889,49.474    18.144,53.485 22.155,51.231 24.412,55.246 28.425,52.989 26.169,48.978 35.783,43.577 35.783,54.603 31.181,54.603 31.181,59.205    35.783,59.205 35.783,63.808 40.386,63.808 40.386,59.205 44.988,59.205 44.988,54.603 40.386,54.603  "/><path d="M68.001,61.832v-7.229h-4.603v7.229c-3.965,1.028-6.904,4.596-6.904,8.88c0,5.083,4.121,9.205,9.205,9.205   c5.083,0,9.205-4.122,9.205-9.205C74.905,66.428,71.966,62.86,68.001,61.832"/><path d="M77.206,56.365v-33.98c0-6.355-5.15-11.506-11.506-11.506c-6.355,0-11.506,5.151-11.506,11.506v33.98   c-4.205,3.375-6.904,8.549-6.904,14.347c0,10.151,8.259,18.41,18.411,18.41c10.149,0,18.411-8.259,18.411-18.41   C84.111,64.914,81.409,59.74,77.206,56.365 M65.7,84.52c-7.625,0-13.808-6.183-13.808-13.808c0-5.108,2.777-9.556,6.904-11.947   v-36.38c0-3.807,3.097-6.904,6.904-6.904s6.903,3.097,6.903,6.904v36.38c4.125,2.392,6.904,6.839,6.904,11.947   C79.507,78.337,73.323,84.52,65.7,84.52"/></g></svg>