<svg xmlns="http://www.w3.org/2000/svg" xmlns:xlink="http://www.w3.org/1999/xlink" version="1.1" x="0px" y="0px" viewBox="0 0 1133.86 1417.3249999999998" enable-background="new 0 0 1133.86 1133.86" xml:space="preserve"><path d="M566.7,0C253.593,0-0.23,253.823-0.23,566.93s253.823,566.93,566.93,566.93s566.93-253.823,566.93-566.93S879.807,0,566.7,0  z M554.912,203.94c39.764,0,73.405,32.617,73.405,73.385s-33.641,73.385-73.405,73.385c-39.731,0-73.365-32.618-73.365-73.385  S515.181,203.94,554.912,203.94z M719.015,891.921H420.385v-67.267h46.869c28.552,0,40.788-11.212,40.788-40.772V522.963  c0-29.556-12.236-40.768-40.788-40.768h-46.869v-67.279h207.931v368.965c0,29.561,12.236,40.772,40.756,40.772h49.942V891.921z"/></svg>