<svg xmlns="http://www.w3.org/2000/svg" xmlns:xlink="http://www.w3.org/1999/xlink" version="1.1" x="0px" y="0px" viewBox="0 0 454 530" enable-background="new 0 0 454 424" xml:space="preserve"><g><path d="M188.2,331c-49.7-14.4-76.4-51.7-114.2-27.9c-19.1,12-29.1,33.5-33.2,55c-2.1,11.1-3.4,23.1-2.9,34.3   c0.2,4.8,0.7,9.8,1.2,14.6c0.1,0.8,1.9,6.7,1.5,7.3C-6.9,334.6,0.5,219.6,62.5,149.8c32.7-36.7,78-58.1,126.5-63.9   c24.8-3,51-0.8,74.9,6.6c23.8,7.4,45.6,20.8,68.5,29.9c26.7,10.6,53.8,0.3,68-24.5c15.6-27.3,14.8-59.5,11.8-89.6   c16.4,39.3,31.1,75.5,30.4,119c-0.6,41.1-10.9,82-32.6,117.3c-22.9,37.2-57.7,66.8-98.6,81.9c-18.9,7-38.1,10.5-58.2,11.8   C236.7,339.4,206.2,336.2,188.2,331z M245.4,179.1c-17.6-10.7-40.6-5.1-51.3,12.5s-5.1,40.6,12.5,51.3s40.6,5.1,51.3-12.5   S263,189.8,245.4,179.1z"/></g></svg>