<svg xmlns="http://www.w3.org/2000/svg" xmlns:xlink="http://www.w3.org/1999/xlink" version="1.1" x="0px" y="0px" viewBox="0 0 100 125" enable-background="new 0 0 100 100" xml:space="preserve"><path d="M86.873,9.646c0,0-4.308,17.812-4.308,27.566s-1.588,16.539-1.588,26.506c0,7.634-1.36,12.512-1.36,21.842  c0,0-0.455,7.633-1.814,7.633c-1.36,0-1.588-1.483-1.588-6.573c0-5.089-2.04-19.72-2.04-25.658c0-5.938-1.361-13.57-1.361-22.476  s-1.361-11.451-3.175-11.451s-3.175,8.482-3.175,16.116c0,7.633-2.269,12.723-2.269,19.085c0,6.36-0.452,12.298-0.452,16.962  c0,4.666-0.454,6.785-1.813,6.785c-1.362,0-2.269-6.359-2.269-10.601s-1.814-7.211-1.814-12.724s-0.907-12.724-0.907-18.661  s-1.359-9.754-1.359-12.723c0-2.968-0.404-6.275-1.759-6.471c-2.212-0.317-3.062,2.068-5.783,2.227  c-2.147,0.126-2.721,1.655-2.721,3.5c0,4.93-0.17,5.725-0.17,11.132c0,5.089-0.851,7.474-0.851,13.359  c0,2.119-0.056,5.884-1.19,5.884c-1.117,0-2.325-1.731-2.325-5.305c0-2.926-1.361-8.012-1.361-11.027c0-5.937-1.417-6.57-2.268-6.57  c-0.85,0-1.133,1.752-1.133,9.811c0,8.059-1.361,12.723-1.361,16.965c0,4.24-0.908,9.754-0.908,14.844  c0,5.088-1.133,7.527-2.381,7.527c-1.247,0-1.474-9.225-1.474-16.01c0-6.786-2.268-19.934-2.268-27.143s-2.04-10.602-2.04-13.571  c0-2.919-0.341-4.456-1.362-4.456c-1.021,0-1.021,5.142-1.021,9.118c0,4.877-1.474,6.945-1.474,16.434  c0,8.694-0.68,7.529-0.68,12.829c0,3.499-0.738,5.726-1.588,5.726c-0.85,0-2.155-4.612-2.155-8.905  c0-7.476-1.076-12.989-1.076-18.556c0-7.209-1.531-9.329-1.531-12.882c0-3.976-3.062-14.472-3.741-15.426  c-0.681-0.955-1.106-4.533-1.106-4.533L86.873,9.646z"/> </svg>