<svg xmlns="http://www.w3.org/2000/svg" xmlns:xlink="http://www.w3.org/1999/xlink" version="1.1" x="0px" y="0px" viewBox="0 0 92.11 109.51375" enable-background="new 0 0 92.11 87.611" xml:space="preserve"><g><rect x="-196.197" y="-5.999" width="185" height="99"/><rect x="-4.197" y="-41.999" width="100" height="30"/><text transform="matrix(1 0 0 1 61.8027 -25.499)" fill="#000000" font-family="'Helvetica'" font-size="2.4">http://thenounproject.com</text><text transform="matrix(1 0 0 1 2.9688 -30.499)"><tspan x="0" y="0" fill="#000000" font-family="'Helvetica-Bold'" font-size="6.1578">The Noun Project</tspan><tspan x="1.12" y="4.8" fill="#000000" font-family="'Helvetica-Bold'" font-size="4">Icon Template</tspan></text><text transform="matrix(1 0 0 1 -182.6973 4.501)" fill="#000000" font-family="'Helvetica-Bold'" font-size="6.1578">Reminders</text><line fill="#000000" stroke="#FFFFFF" stroke-miterlimit="10" x1="3.803" y1="-20.499" x2="13.803" y2="-20.499"/><line fill="#000000" stroke="#FFFFFF" stroke-miterlimit="10" x1="-183.197" y1="10.501" x2="-166.197" y2="10.501"/><g><g><g><rect x="-174.999" y="25.319" fill="#000000" width="8.721" height="8.642"/><path fill="#000000" d="M-168.652,36.312h4.747v-4.703h-4.747V36.312z M-163.463,36.75h-5.63v-5.579h5.63V36.75L-163.463,36.75z       M-170.418,38.062h8.279v-8.203h-8.279V38.062L-170.418,38.062z M-161.697,38.501h-9.163v-9.079h9.163V38.501L-161.697,38.501z"/><polygon fill="#000000" points="-170.347,38.134 -170.489,37.992 -162.21,29.788 -162.068,29.93     "/></g></g></g><rect x="-183.197" y="52.001" fill="none" width="35" height="32.5"/><text transform="matrix(1 0 0 1 -183.1973 54.1582)"><tspan x="0" y="0" fill="#000000" font-family="'Helvetica-Bold'" font-size="3">Strokes</tspan><tspan x="0" y="5" fill="#000000" font-family="'Helvetica'" font-size="2.4">Try to keep strokes at 4px</tspan><tspan x="0" y="10" fill="#000000" font-family="'Helvetica'" font-size="2.4">Minimum stroke weight is 2px</tspan><tspan x="0" y="14.5" fill="#000000" font-family="'Helvetica'" font-size="2.4">For thicker strokes use even </tspan><tspan x="0" y="17.5" fill="#000000" font-family="'Helvetica'" font-size="2.4">numbers: 6px, 8px etc.</tspan><tspan x="0" y="22" fill="#000000" font-family="'Helvetica-Bold'" font-size="2.4">Remember to expand strokes </tspan><tspan x="0" y="25" fill="#000000" font-family="'Helvetica-Bold'" font-size="2.4">before saving as an SVG </tspan></text><rect x="-140.697" y="52.001" fill="none" width="35" height="32.5"/><text transform="matrix(1 0 0 1 -140.6973 54.1582)"><tspan x="0" y="0" fill="#000000" font-family="'Helvetica-Bold'" font-size="3">Size</tspan><tspan x="0" y="5" fill="#000000" font-family="'Helvetica'" font-size="2.4">Cannot be wider or taller than </tspan><tspan x="0" y="8.5" fill="#000000" font-family="'Helvetica'" font-size="2.4">100px (artboard size)</tspan><tspan x="0" y="13.5" fill="#000000" font-family="'Helvetica'" font-size="2.4">Scale your icon to fill as much of </tspan><tspan x="0" y="16.5" fill="#000000" font-family="'Helvetica'" font-size="2.4">the artboard as possible</tspan></text><rect x="-98.197" y="52.001" fill="none" width="35" height="32.5"/><text transform="matrix(1 0 0 1 -98.1973 54.1582)"><tspan x="0" y="0" fill="#000000" font-family="'Helvetica-Bold'" font-size="3">Ungroup</tspan><tspan x="0" y="5" fill="#000000" font-family="'Helvetica'" font-size="2.4">If your design has more than one </tspan><tspan x="0" y="8" fill="#000000" font-family="'Helvetica'" font-size="2.4">shape, make sure to ungroup</tspan></text><rect x="-54.197" y="52.001" fill="none" width="35" height="32.5"/><text transform="matrix(1 0 0 1 -54.1973 54.1582)"><tspan x="0" y="0" fill="#000000" font-family="'Helvetica-Bold'" font-size="3">Save as</tspan><tspan x="0" y="5" fill="#000000" font-family="'Helvetica'" font-size="2.4">Save as .SVG and make sure </tspan><tspan x="0" y="8" fill="#000000" font-family="'Helvetica'" font-size="2.4">“Use Artboards” is checked</tspan></text><text transform="matrix(1.0074 0 0 1 -129.7393 24.5942)" fill="#000000" font-family="'Helvetica'" font-size="2.5731">100px</text><text transform="matrix(1.0074 0 0 1 -45.1973 33.001)" fill="#000000" font-family="'Helvetica-Bold'" font-size="5.1462">.SVG</text><rect x="-130.711" y="28.816" fill="#000000" width="10.261" height="10.185"/><rect x="-130.674" y="25.767" fill="#000000" width="0.522" height="2.337"/><rect x="-121.01" y="25.767" fill="#000000" width="0.523" height="2.337"/><rect x="-131.197" y="26.338" fill="#000000" width="11.233" height="0.572"/><g><rect x="-88.002" y="27.845" fill="#000000" width="10.305" height="10.156"/><rect x="-81.006" y="22.708" fill="#000000" width="3.308" height="3.261"/></g><rect x="-182.697" y="16.501" fill="#000000" stroke="#FFFFFF" stroke-miterlimit="10" width="30" height="30"/><rect x="-140.697" y="16.501" fill="#000000" stroke="#FFFFFF" stroke-miterlimit="10" width="30" height="30"/><rect x="-97.697" y="16.501" fill="#000000" stroke="#FFFFFF" stroke-miterlimit="10" width="30" height="30"/><rect x="-53.697" y="16.501" fill="#000000" stroke="#FFFFFF" stroke-miterlimit="10" width="30" height="30"/></g><g><g><g><g><path d="M69.866,5.276C64.043,15.431,56.246,23.62,50.218,33.57c5.761,0,11.53,0,17.291,0c0.888,1.832-1.847,4.731-3.144,6.288      C52.812,53.69,37.21,69.315,25.854,83.871C28.337,73.253,35.701,60.717,40,49.289c-5.501,0-11.003,0-16.505,0      C28.856,34.474,35.081,20.523,40,5.276C49.958,5.276,59.908,5.276,69.866,5.276z"/></g></g></g></g> </svg>