<svg xmlns="http://www.w3.org/2000/svg" xmlns:xlink="http://www.w3.org/1999/xlink" version="1.1" x="0px" y="0px" viewBox="0 0 100 100" enable-background="new 0 0 100 100" xml:space="preserve"><g><path d="M50.139,24.488c-12.507,0-24.286-0.976-33.166-2.748C6.527,19.655,1.662,16.902,1.662,13.075S6.527,6.494,16.973,4.41   c8.88-1.772,20.659-2.748,33.166-2.748c12.506,0,24.285,0.976,33.167,2.748c10.444,2.084,15.309,4.837,15.309,8.665   s-4.864,6.581-15.309,8.665C74.424,23.512,62.645,24.488,50.139,24.488z M6.037,13.075c0.265,0.403,2.173,2.609,12.822,4.604   c8.483,1.588,19.592,2.463,31.279,2.463c11.687,0,22.795-0.875,31.279-2.463c10.649-1.995,12.557-4.201,12.821-4.604   c-0.265-0.402-2.172-2.608-12.821-4.603c-8.484-1.589-19.593-2.464-31.279-2.464c-11.688,0-22.796,0.875-31.279,2.464   C8.21,10.466,6.302,12.672,6.037,13.075z"></path></g><g><path d="M50.139,34.266c-16.344,0-31.31-1.673-40.032-4.477c-1.142-0.368-1.771-1.591-1.403-2.734   c0.366-1.142,1.591-1.771,2.733-1.404c8.192,2.633,23.021,4.269,38.702,4.269c16.253,0,31.351-1.725,39.398-4.5   c1.135-0.392,2.371,0.211,2.764,1.346c0.391,1.134-0.212,2.371-1.346,2.763C82.353,32.495,67.095,34.266,50.139,34.266z"></path></g><g><path d="M50.139,43.61c-14.253,0-27.594-1.28-36.602-3.511c-1.165-0.289-1.875-1.467-1.588-2.632   c0.289-1.165,1.468-1.875,2.633-1.587c8.682,2.15,21.642,3.384,35.557,3.384c10.47,0,20.693-0.721,28.787-2.03   c1.183-0.192,2.3,0.613,2.492,1.798c0.191,1.185-0.613,2.301-1.799,2.492C71.183,42.89,60.989,43.61,50.139,43.61z"></path></g><g><path d="M50.139,52.955c-15.414,0-29.896-1.526-38.739-4.083c-1.152-0.333-1.817-1.538-1.483-2.691   c0.333-1.153,1.539-1.817,2.69-1.484c8.473,2.449,22.504,3.912,37.532,3.912c6.273,0,12.351-0.248,18.063-0.737   c1.194-0.103,2.248,0.784,2.351,1.979c0.102,1.196-0.784,2.248-1.98,2.351C62.737,52.702,56.535,52.955,50.139,52.955z"></path></g><g><path d="M50.139,62.299c-14.253,0-27.593-1.28-36.602-3.511c-1.165-0.289-1.875-1.467-1.588-2.632   c0.289-1.165,1.468-1.875,2.633-1.587c8.682,2.15,21.642,3.449,35.557,3.449c2.06,0,4.131-0.018,6.155-0.018   c0.02,0,0.039,0,0.059,0c1.174,0,2.141,0.871,2.172,2.05c0.032,1.2-0.915,2.166-2.114,2.198   C54.347,62.303,52.236,62.299,50.139,62.299z"></path></g><g><path d="M50.139,71.643c-2.709,0-5.423-0.047-8.066-0.138c-8.761-0.305-16.896-1.103-23.523-2.31   c-1.182-0.214-1.964-1.346-1.749-2.527c0.215-1.18,1.347-1.964,2.527-1.749c6.424,1.169,14.342,1.945,22.897,2.242   c2.593,0.09,5.254,0.136,7.914,0.136c1.199,0,2.173,0.973,2.173,2.173S51.338,71.643,50.139,71.643z"></path></g><g><path d="M50.139,80.987c-2.807,0-5.617-0.05-8.355-0.149c-4.927-0.177-9.656-0.511-14.058-0.99   c-1.193-0.131-2.055-1.203-1.924-2.396c0.13-1.193,1.205-2.054,2.396-1.924c4.297,0.469,8.92,0.794,13.742,0.968   c2.688,0.097,5.445,0.146,8.199,0.146c1.199,0,2.173,0.973,2.173,2.173S51.338,80.987,50.139,80.987z"></path></g><g><path d="M50.139,90.332c-3.386,0-6.762-0.073-10.038-0.216c-1.199-0.052-2.129-1.067-2.077-2.266   c0.054-1.198,1.062-2.129,2.267-2.076c3.213,0.141,6.526,0.211,9.849,0.211c1.359,0,1.824-0.012,2.75-0.035   c0.285-0.007,0.615-0.016,1.025-0.025c1.192-0.023,2.194,0.922,2.223,2.123c0.027,1.2-0.923,2.194-2.123,2.222   c-0.406,0.009-0.731,0.018-1.015,0.025C52.037,90.319,51.554,90.332,50.139,90.332z"></path></g><g><path d="M50.949,98.617c-0.445,0-0.927-0.007-1.366-0.031c-1.198-0.063-2.119-1.085-2.057-2.283   c0.063-1.199,1.089-2.122,2.283-2.057c1.077,0.057,2.563,0,2.577-0.001c1.2-0.046,2.21,0.887,2.256,2.086   c0.048,1.199-0.887,2.209-2.086,2.256C52.512,98.589,51.795,98.617,50.949,98.617z"></path></g><ellipse fill="none" stroke="#000000" stroke-width="20" stroke-linecap="round" stroke-linejoin="round" stroke-miterlimit="10" cx="-1048.259" cy="121.182" rx="213.079" ry="42.52"></ellipse><path fill="none" stroke="#000000" stroke-width="20" stroke-linecap="round" stroke-linejoin="round" stroke-miterlimit="10" d="  M-1229.418,188.578c37.583,12.08,104.664,20.124,181.159,20.124c78.865,0,147.724-8.55,184.567-21.258"></path><path fill="none" stroke="#000000" stroke-width="20" stroke-linecap="round" stroke-linejoin="round" stroke-miterlimit="10" d="  M-914.189,242.231c-36.615,5.922-83.266,9.47-134.069,9.47c-67.107,0-126.97-6.19-166.027-15.866"></path><path fill="none" stroke="#000000" stroke-width="20" stroke-linecap="round" stroke-linejoin="round" stroke-miterlimit="10" d="  M-1223.75,276.305c38.438,11.113,102.702,18.396,175.491,18.396c29.82,0,58.209-1.223,83.978-3.43"></path><path fill="none" stroke="#000000" stroke-width="20" stroke-linecap="round" stroke-linejoin="round" stroke-miterlimit="10" d="  M-1019.666,337.322c-9.353,0.25-18.897,0.379-28.593,0.379c-67.107,0-126.97-6.19-166.027-15.866"></path><path fill="none" stroke="#000000" stroke-width="20" stroke-linecap="round" stroke-linejoin="round" stroke-miterlimit="10" d="  M-1048.259,380.701c-12.538,0-24.823-0.216-36.767-0.631c-40.748-1.414-77.522-5.139-106.813-10.472"></path><path fill="none" stroke="#000000" stroke-width="20" stroke-linecap="round" stroke-linejoin="round" stroke-miterlimit="10" d="  M-1048.259,423.701c-13,0-25.729-0.232-38.087-0.678c-22.788-0.82-44.315-2.363-63.966-4.507"></path><path fill="none" stroke="#000000" stroke-width="20" stroke-linecap="round" stroke-linejoin="round" stroke-miterlimit="10" d="  M-1094.016,465.719c14.739,0.644,30.05,0.982,45.757,0.982c8.321,0,9.53-0.095,17.603-0.28"></path><path fill="none" stroke="#000000" stroke-width="20" stroke-linecap="round" stroke-linejoin="round" stroke-miterlimit="10" d="  M-1050.291,504.701c5.468,0.286,12.77,0,12.77,0"></path></svg>