<svg xmlns="http://www.w3.org/2000/svg" xmlns:xlink="http://www.w3.org/1999/xlink" xmlns:a="http://ns.adobe.com/AdobeSVGViewerExtensions/3.0/" version="1.1" x="0px" y="0px" viewBox="-8 -6.999 100 125" enable-background="new -8 -6.999 100 100" xml:space="preserve"><line x1="42" y1="3.001" x2="3" y2="71.376"/><path d="M2.998,74.377c-0.504,0-1.014-0.128-1.483-0.396c-1.439-0.82-1.94-2.652-1.12-4.092l39-68.375  c0.821-1.439,2.654-1.941,4.092-1.12c1.439,0.821,1.94,2.653,1.119,4.092l-39,68.375C5.053,73.833,4.04,74.377,2.998,74.377z"/><path d="M80.375,74.376H3c-1.657,0-3-1.343-3-3s1.343-3,3-3h77.375c1.657,0,3,1.343,3,3S82.033,74.376,80.375,74.376z"/><path d="M80.378,74.377c-1.05,0-2.068-0.552-2.619-1.532L39.384,4.47c-0.811-1.445-0.297-3.273,1.148-4.084  c1.445-0.813,3.273-0.297,4.084,1.148l38.375,68.375c0.811,1.445,0.297,3.274-1.147,4.085  C81.379,74.253,80.875,74.377,80.378,74.377z"/><circle fill="#000000" cx="41.697" cy="48.802" r="5.991"/><path fill="#000000" d="M41.201,25.756c-5.957,0.393-10.675,5.352-10.675,11.407c0,1.488,0.285,2.909,0.802,4.212  c-1.386,0.203-2.76,0.664-4.048,1.408c-5.266,3.04-7.195,9.646-4.508,15.014c-1.94-4.063-0.452-9.005,3.512-11.294  c4.034-2.329,9.156-1.056,11.661,2.81l1.575-0.908c-0.099-0.276-0.15-0.576-0.15-0.887c0-1.255,0.881-2.306,2.058-2.566V43.13  c-4.559-0.28-8.177-4.063-8.177-8.692C33.25,29.885,36.747,26.141,41.201,25.756L41.201,25.756z"/><path fill="#000000" d="M42.663,25.749c4.483,0.356,8.014,4.115,8.014,8.69c0,4.658-3.664,8.457-8.264,8.694v1.784  c1.255,0.199,2.217,1.291,2.217,2.601c0,0.321-0.059,0.629-0.163,0.912l1.632,0.942c2.521-3.809,7.608-5.051,11.616-2.736  c4,2.31,5.478,7.318,3.461,11.4c2.767-5.386,0.843-12.063-4.459-15.122c-1.325-0.767-2.739-1.232-4.169-1.426  c0.547-1.334,0.851-2.794,0.851-4.326C53.399,31.086,48.649,26.111,42.663,25.749L42.663,25.749z"/><path fill="#000000" d="M41.71,36.704c-2.301,0.053-4.422,0.836-6.163,2.111c0.139,0.206,0.289,0.405,0.446,0.596  c0.158,0.191,0.325,0.374,0.499,0.549c0.175,0.174,0.358,0.342,0.549,0.5c0.14,0.115,0.292,0.22,0.439,0.326  c1.285-0.844,2.825-1.339,4.482-1.339c1.659,0,3.194,0.495,4.479,1.339c0.148-0.106,0.298-0.211,0.439-0.326  c0.191-0.158,0.374-0.325,0.55-0.5c0.175-0.175,0.341-0.358,0.499-0.549c0.157-0.191,0.307-0.391,0.445-0.596  c-1.803-1.321-4.015-2.111-6.412-2.111c-0.058,0-0.114-0.001-0.171,0C41.767,36.704,41.738,36.703,41.71,36.704L41.71,36.704z"/><path fill="#000000" d="M31.222,46.306c-0.242,2.223,0.18,4.533,1.378,6.61c1.199,2.076,2.989,3.6,5.034,4.501  c0.11-0.224,0.208-0.453,0.293-0.686c0.087-0.233,0.163-0.467,0.227-0.706c0.064-0.239,0.119-0.482,0.16-0.726  c0.031-0.18,0.047-0.361,0.063-0.544c-1.372-0.689-2.57-1.776-3.399-3.213c-0.829-1.435-1.17-3.013-1.082-4.548  c-0.166-0.075-0.332-0.152-0.502-0.217c-0.232-0.086-0.467-0.162-0.707-0.226c-0.239-0.064-0.48-0.115-0.726-0.156  C31.717,46.355,31.47,46.324,31.222,46.306L31.222,46.306z"/><path fill="#000000" d="M52.778,46.436c-0.247,0.018-0.495,0.05-0.739,0.091s-0.486,0.093-0.726,0.157  c-0.238,0.063-0.477,0.139-0.708,0.226c-0.171,0.063-0.333,0.145-0.5,0.22c0.088,1.534-0.252,3.113-1.082,4.548  c-0.829,1.436-2.027,2.52-3.4,3.211c0.018,0.182,0.034,0.362,0.063,0.543c0.043,0.244,0.094,0.486,0.157,0.725  c0.064,0.239,0.139,0.477,0.228,0.709c0.084,0.233,0.182,0.46,0.292,0.684c2.045-0.902,3.836-2.423,5.034-4.499  C52.595,50.974,53.02,48.66,52.778,46.436L52.778,46.436z"/><path fill="#000000" d="M40.019,49.248l-1.584,0.918c2.037,4.089,0.572,9.112-3.437,11.428c-3.988,2.304-9.049,1.092-11.583-2.674  c3.289,5.066,10.013,6.728,15.303,3.673c1.282-0.74,2.363-1.694,3.23-2.786c0.884,1.148,2.002,2.146,3.337,2.916  c5.297,3.058,12.029,1.391,15.313-3.689C58.067,62.814,53,64.038,49.003,61.73c-4.035-2.328-5.494-7.401-3.398-11.504l-1.647-0.952  c-0.481,0.535-1.18,0.876-1.957,0.876C41.211,50.15,40.501,49.798,40.019,49.248L40.019,49.248z"/></svg>