<svg xmlns="http://www.w3.org/2000/svg" xmlns:xlink="http://www.w3.org/1999/xlink" version="1.1" x="0px" y="0px" viewBox="0 0 100 125" enable-background="new 0 0 100 100" xml:space="preserve"><g><path d="M94.832,71.465h-38.98c-7.184,0-14.012-3.177-18.703-8.58c-2.197-2.553-3.592-5.61-4.097-8.906   c-1.484-9.618,5.136-18.703,14.814-20.188c-1.84,1.336-2.256,3.948-0.92,5.789s3.889,2.227,5.73,0.891   c1.068-0.802,1.722-2.078,1.691-3.414c-0.029-2.73-1.543-5.225-3.888-6.561c-15.23-8.58-34.557-3.177-43.136,12.023   c-2.672,4.72-4.067,10.123-4.067,15.586v19.148h91.556V71.465z"/></g><g><polygon points="63.719,63.567 69.835,58.046 75.921,63.567 75.921,70.307 71.527,70.307 71.527,65.468 68.113,65.468    68.113,70.307 63.719,70.307  "/></g><g><path d="M62.562,62.231l7.273-6.472l7.243,6.472c0.209,0.148,0.209,0.445,0.061,0.594c-0.179,0.238-0.445,0.238-0.624,0.06   l-6.68-5.938l-6.68,5.938c-0.179,0.179-0.476,0.179-0.624-0.06C62.383,62.677,62.383,62.38,62.562,62.231z"/></g><g><polygon points="82.631,63.567 88.746,58.046 94.832,63.567 94.832,70.307 90.438,70.307 90.438,65.468 87.023,65.468    87.023,70.307 82.631,70.307  "/></g><g><path d="M81.473,62.231l7.273-6.472l7.244,6.472c0.178,0.148,0.207,0.445,0.029,0.594c-0.148,0.238-0.445,0.238-0.594,0.06   l-6.68-5.938l-6.68,5.938c-0.208,0.179-0.475,0.179-0.623-0.06C81.265,62.677,81.265,62.38,81.473,62.231z"/></g></svg>